<svg height='100px' width='100px'  fill="#ffffff" xmlns="http://www.w3.org/2000/svg" xmlns:xlink="http://www.w3.org/1999/xlink" version="1.1" x="0px" y="0px" viewBox="0 0 98 98" enable-background="new 0 0 98 98" xml:space="preserve"><g><polygon points="45.89,2.535 45.89,23.755 23.39,23.755  "></polygon><path d="M47.89,1.975v23.78H22.78v5.52h30.49v64.75H97V1.975H47.89z M83.05,33.615h2c0,0.92-0.1001,1.83-0.3,2.72l-1.95-0.43   C82.96,35.155,83.05,34.385,83.05,33.615z M84.37,37.685c-0.6,1.77-1.61,3.41-2.92,4.7599l-1.4299-1.39   c1.1-1.14,1.95-2.53,2.46-4.02L84.37,37.685z M72.36,30.065c-4.2899,0-7.7699-3.48-7.7699-7.77c0-3.56,2.3899-6.56,5.6599-7.48   v-3.23h4.22v3.23c3.26,0.92,5.66,3.92,5.66,7.48h-4.22c0-1.95-1.6-3.55-3.55-3.55c-1.96,0-3.5499,1.6-3.5499,3.55   s1.59,3.55,3.5499,3.55c4.28,0,7.77,3.48,7.77,7.77c0,3.56-2.4,6.56-5.66,7.47v3.3h-4.22v-3.3c-3.27-0.91-5.6599-3.91-5.6599-7.47   h4.22c0,1.95,1.59,3.55,3.5499,3.55c1.9501,0,3.55-1.6,3.55-3.55S74.3101,30.065,72.36,30.065z M62.75,14.025l1.51,1.31   c-0.5,0.58-0.9299,1.21-1.3,1.88l-1.75-0.95C61.64,15.465,62.15,14.715,62.75,14.025z M60.4399,17.965l1.8701,0.69   c-0.42,1.17-0.6401,2.4-0.6401,3.64c0,1.12,0.1702,2.21,0.51,3.26l-1.9099,0.62c-0.4-1.25-0.6001-2.56-0.6001-3.88   C59.6699,20.815,59.9299,19.355,60.4399,17.965z M57.27,52.925h14.77v2H57.27V52.925z M57.27,63.385H59.95v2H57.27V63.385z    M57.27,73.855h20.5601v2H57.27V73.855z M63.55,86.315h-6.28v-2h6.28V86.315z M89.8301,86.315H67.9299v-2h21.9001V86.315z    M89.8301,75.855h-8.4001v-2h8.4001V75.855z M89.8301,65.385h-25.76v-2h25.76V65.385z M89.8301,54.925H76.95v-2h12.8801V54.925z"></path><path d="M1,33.275v62.75h50.27v-62.75H1z M15.98,88.945H8.72V81.685H15.98V88.945z M15.98,76.585H8.72v-7.26H15.98V76.585z    M15.98,64.225H8.72v-7.26H15.98V64.225z M29.76,88.945H22.5V81.685h7.26V88.945z M29.76,76.585H22.5v-7.26h7.26V76.585z    M29.76,64.225H22.5v-7.26h7.26V64.225z M43.55,88.945h-7.26V81.685h7.26V88.945z M43.55,76.585h-7.26v-7.26h7.26V76.585z    M43.55,64.225h-7.26v-7.26h7.26V64.225z M44.4,52.485H7.87v-12.13H44.4V52.485z"></path><rect x="38.9221" y="43.0168" width="2" height="6.8047"></rect><rect x="34.3215" y="43.0168" width="2" height="6.8047"></rect><rect x="29.72" y="43.0168" width="2" height="6.8047"></rect><rect x="28.0255" y="5.8453" transform="matrix(0.6923 0.7216 -0.7216 0.6923 18.0357 -17.0627)" width="2.0002" height="13.5442"></rect><rect x="36.1954" y="3.2" transform="matrix(0.6923 0.7216 -0.7216 0.6923 14.8887 -25.3719)" width="2.0002" height="3.1454"></rect><rect x="9.2219" y="28.0344" width="9.3438" height="2"></rect><rect x="4.8655" y="28.0344" width="2.415" height="2"></rect></g></svg>