<svg height='100px' width='100px'  fill="#ffffff" xmlns="http://www.w3.org/2000/svg" xmlns:xlink="http://www.w3.org/1999/xlink" version="1.1" x="0px" y="0px" viewBox="0 0 98 98" enable-background="new 0 0 98 98" xml:space="preserve"><g><polygon points="96.705,91.2824 92.455,95.5324 91.035,94.1225 92.8751,92.2824 81.305,92.2824 81.305,95.8624 79.305,95.8624    79.305,92.2824 69.8851,92.2824 69.8851,95.8624 67.8851,95.8624 67.8851,92.2824 58.455,92.2824 58.455,95.8624 56.455,95.8624    56.455,92.2824 47.035,92.2824 47.035,95.8624 45.035,95.8624 45.035,92.2824 35.605,92.2824 35.605,95.8624 33.605,95.8624    33.605,92.2824 24.175,92.2824 24.175,95.8624 22.175,95.8624 22.175,92.2824 12.755,92.2824 12.755,95.8624 10.755,95.8624    10.755,92.2824 1.295,92.2824 1.295,90.2824 4.875,90.2824 4.875,80.8524 1.295,80.8524 1.295,78.8524 4.875,78.8524    4.875,69.4324 1.295,69.4324 1.295,67.4324 4.875,67.4324 4.875,58.0023 1.295,58.0023 1.295,56.0023 4.875,56.0023 4.875,46.5724    1.295,46.5724 1.295,44.5724 4.875,44.5724 4.875,35.1524 1.295,35.1524 1.295,33.1524 4.875,33.1524 4.875,23.7223 1.295,23.7223    1.295,21.7223 4.875,21.7223 4.875,7.6524 3.035,9.4823 1.625,8.0724 5.875,3.8224 10.125,8.0724 8.705,9.4823 6.875,7.6524    6.875,90.2824 14.955,90.2824 14.955,69.1724 24.415,69.1724 24.415,90.2824 29.835,90.2824 29.835,53.5324 39.295,53.5324    39.295,90.2824 44.7149,90.2824 44.7149,66.7223 54.175,66.7223 54.175,90.2824 59.595,90.2824 59.595,55.1524 69.055,55.1524    69.055,90.2824 74.355,90.2824 74.355,48.5123 83.815,48.5123 83.815,90.2824 92.8751,90.2824 91.035,88.4424 92.455,87.0324  "></polygon><polygon points="34.5599,40.7186 49.4681,57.5653 64.7933,39.1591 77.9256,39.1591 76.5071,40.601 77.9329,42.0033    81.7513,38.1215 77.8694,34.3031 76.4671,35.7289 77.921,37.1591 63.8558,37.1591 49.4212,54.495 34.6517,37.8036 18.9808,53.4325    20.3929,54.8485  "></polygon><path d="M72.3743,20.0175c0-5.5513-2.1846-10.7593-6.1523-14.6646l-1.4023,1.4258c3.582,3.5259,5.5547,8.2275,5.5547,13.2388   H72.3743z"></path><path d="M64.2103,3.6117c-0.7061-0.5361-1.4551-1.0322-2.2266-1.4741l-0.9941,1.7354c0.6973,0.3994,1.374,0.8472,2.0117,1.3315   L64.2103,3.6117z"></path><path d="M51.785,3.4424c-9.1399,0-16.57,7.4301-16.57,16.5699c0,9.15,7.4301,16.5801,16.57,16.5801   c9.14,0,16.5801-7.4301,16.5801-16.5801C68.3651,10.8724,60.925,3.4424,51.785,3.4424z M51.785,19.0023   c2.3101,0,4.1899,1.8801,4.1899,4.1901c0,1.96-1.3599,3.6-3.1899,4.0499v2.5901h-2v-2.5901c-1.8201-0.45-3.1899-2.09-3.1899-4.0499   h2c0,1.21,0.98,2.1901,2.1899,2.1901s2.1899-0.9801,2.1899-2.1901c0-1.2101-0.98-2.1901-2.1899-2.1901   c-2.3101,0-4.1899-1.8799-4.1899-4.1899c0-1.97,1.3699-3.6101,3.1899-4.0601v-2.55h2v2.55c1.8301,0.45,3.1899,2.0901,3.1899,4.0601   h-2c0-1.21-0.98-2.1899-2.1899-2.1899s-2.1899,0.98-2.1899,2.1899C49.595,18.0123,50.575,19.0023,51.785,19.0023z"></path></g></svg>