<svg height='100px' width='100px'  fill="#ffffff" xmlns="http://www.w3.org/2000/svg" xmlns:xlink="http://www.w3.org/1999/xlink" version="1.1" x="0px" y="0px" viewBox="0 0 98 98" enable-background="new 0 0 98 98" xml:space="preserve"><g><rect x="8.0849" y="84.7321" width="81.8301" height="4.44"></rect><rect x="3.805" y="91.1721" width="90.39" height="4.33"></rect><path d="M49.0007,2.4979L8.2814,37.5513h81.4385L49.0007,2.4979z M50.1591,29.9689v2.2909H47.843V29.969   c-1.7383-0.5058-3.0198-2.0947-3.0198-3.993h2.3162c0,1.0258,0.8347,1.8605,1.8616,1.8605c1.0259,0,1.8606-0.8347,1.8606-1.8605   c0-1.0269-0.8347-1.8616-1.8606-1.8616c-2.3037,0-4.1777-1.8741-4.1777-4.1768c0-1.8992,1.2815-3.4882,3.0198-3.9941v-2.2568   h2.3162v2.257c1.7373,0.506,3.0186,2.0948,3.0186,3.994h-2.3162c0-1.0269-0.8347-1.8616-1.8606-1.8616   c-1.0269,0-1.8616,0.8347-1.8616,1.8616c0,1.0258,0.8347,1.8605,1.8616,1.8605c2.3027,0,4.1768,1.874,4.1768,4.1779   C53.1777,27.8742,51.8964,29.4629,50.1591,29.9689z"></path><rect x="14.503" y="22.2029" transform="matrix(0.6602 0.7511 -0.7511 0.6602 23.6073 -3.347)" width="1.9998" height="4.4313"></rect><rect x="23.3545" y="10.3839" transform="matrix(0.6602 0.7511 -0.7511 0.6602 20.7702 -12.639)" width="1.9998" height="12.5058"></rect><rect x="72.7061" y="21.2727" transform="matrix(0.7511 0.6602 -0.6602 0.7511 34.5597 -47.1126)" width="14.0973" height="1.9998"></rect><rect x="69.397" y="13.7214" transform="matrix(0.7512 0.6601 -0.6601 0.7512 27.4225 -43.3111)" width="3.536" height="1.9998"></rect><rect x="11.2939" y="64.0455" width="2" height="5.4971"></rect><polygon points="17.305,39.5521 17.305,77.9521 13.3549,77.9521 13.3549,82.7321 84.645,82.7321 84.645,77.9521 80.3749,77.9521    80.3749,39.5521 72.8549,39.5521 72.8549,77.9521 61.8549,77.9521 61.8549,39.5521 54.3449,39.5521 54.3449,77.9521    43.3449,77.9521 43.3449,39.5521 35.8249,39.5521 35.8249,77.9521 24.8249,77.9521 24.8249,39.5521  "></polygon><rect x="10.622" y="50.694" width="2" height="9.5596"></rect><rect x="85.3788" y="58.5494" width="2" height="10.9932"></rect><rect x="85.3788" y="50.694" width="2" height="4.5518"></rect></g></svg>