<svg height='100px' width='100px'  fill="#ffffff" xmlns="http://www.w3.org/2000/svg" xmlns:xlink="http://www.w3.org/1999/xlink" version="1.1" x="0px" y="0px" viewBox="0 0 98 98" enable-background="new 0 0 98 98" xml:space="preserve"><g><g><polygon points="66.1643,44.9854 66.1643,56.6954 58.5943,49.7154 58.5943,44.9854   "></polygon></g><g><path d="M55.4348,1.8046C64.2106,6.282,70.8195,19.6518,71.778,35.8947c1.2354-2.2756,3.6456-3.8209,6.4171-3.8217    c3.8542-0.0011,7.0039,2.9874,7.2748,6.7729C84.9706,20.268,72.1821,4.9724,55.4348,1.8046z"></path><path d="M42.4225,1.8314C25.7368,5.0595,13.0178,20.3332,12.5301,38.8663c0.269-3.7853,3.4168-6.7751,7.2708-6.7762    c2.7714-0.0009,5.1826,1.543,6.4193,3.818c0.5165-8.9941,2.7478-17.3441,6.4171-23.8462    C35.3873,7.189,38.742,3.7168,42.4225,1.8314z"></path><path d="M52.0791,2.6062c3.3752,5.7708,4.8885,20.8174,5.1697,33.1785c1.2537-2.2114,3.6241-3.7066,6.3477-3.7074    c2.5828-0.0007,4.8474,1.3437,6.1454,3.3675C68.619,18.578,61.3295,5.093,52.0791,2.6062z"></path><path d="M55.2543,35.6254c-1.28-2.12-3.6-3.54-6.26-3.54c-2.65,0-4.97,1.42-6.25,3.55c0.42-20.55,3.84-33.44,6.24-33.44    c0,0,0,0,0.01,0C51.4043,2.2354,54.8143,15.1054,55.2543,35.6254z"></path><path d="M34.3791,13.0447c-3.4418,6.0993-5.5521,13.9287-6.1116,22.3932c1.2988-2.0142,3.5572-3.3514,6.132-3.3522    c2.7234-0.0008,5.0945,1.4929,6.3495,3.7032c0.274-12.3609,1.7787-27.4069,5.15-33.1801    C41.5846,3.7776,37.5754,7.3805,34.3791,13.0447z"></path></g><path d="M49.9943,44.5171V34.1754c-0.33-0.06-0.66-0.09-1-0.09c-0.34,0-0.67,0.03-1,0.09v10.3598l-24.68,22.7202h6.15v28.94h39.07   v-28.94h6.15L49.9943,44.5171z M49.0035,72.3959c4.1156,0,7.4612,3.3522,7.4612,7.4678c0,3.1796-1.9981,5.9012-4.806,6.9766v3.2991   h-5.3104v-3.2991c-2.8145-1.0753-4.8126-3.7969-4.8126-6.9766h5.3104c0,1.1882,0.9692,2.1507,2.1573,2.1507   c1.1882,0,2.1508-0.9625,2.1508-2.1507s-0.9625-2.1573-2.1508-2.1573c-4.1156,0-7.4678-3.3456-7.4678-7.4612   c0-3.1796,1.998-5.9012,4.8126-6.9832v-3.2393h5.3104v3.2393c2.8079,1.082,4.806,3.8036,4.806,6.9832h-5.3104   c0-1.1882-0.9625-2.1573-2.1508-2.1573c-1.1882,0-2.1573,0.9691-2.1573,2.1573S47.8153,72.3959,49.0035,72.3959z"></path><path d="M42.8501,19.0786"></path><path d="M49.4413,19.0767"></path><g><rect x="71.9128" y="86.5007" width="2" height="3.5552"></rect></g><g><rect x="71.9128" y="74.0779" width="2" height="9.646"></rect></g><g><rect x="23.8307" y="79.9636" width="2" height="10.0923"></rect></g><g><rect x="23.8307" y="74.0779" width="2" height="3.1089"></rect></g><g><rect x="31.2147" y="48.2739" transform="matrix(0.685 0.7285 -0.7285 0.685 49.4563 -6.4734)" width="2" height="11.3727"></rect></g><g><rect x="38.028" y="46.1573" transform="matrix(0.685 0.7285 -0.7285 0.685 46.9366 -13.4539)" width="2" height="2.7973"></rect></g><g><rect x="67.1608" y="53.5891" width="2" height="4.459"></rect></g><g><rect x="67.1608" y="50.0657" width="2" height="1.9341"></rect></g></g></svg>