<svg height='100px' width='100px'  fill="#ffffff" xmlns="http://www.w3.org/2000/svg" xmlns:xlink="http://www.w3.org/1999/xlink" version="1.1" x="0px" y="0px" viewBox="0 0 98 98" enable-background="new 0 0 98 98" xml:space="preserve"><g><path d="M68.09,88.04h-4.17l-4.04-8.96H38.11l-4.04,8.96H29.9c-2.47,0-4.48,2.01-4.48,4.48c0,2.47,2.01,4.48,4.48,4.48h38.19   c2.47,0,4.47-2.01,4.47-4.48C72.56,90.05,70.56,88.04,68.09,88.04z"></path><path d="M23.33,60.15c1.6744-1.3221-6.0376,4.7671,16.3-12.8701c-22.3471-18.7139-14.6277-12.2496-16.3-13.65V60.15z"></path><polygon points="31.55,25.81 24.14,31.69 31.55,37.9  "></polygon><polygon points="48.99,11.96 41.19,18.15 56.79,18.15  "></polygon><polygon points="66.44,25.81 66.44,37.9 73.85,31.69  "></polygon><path d="M48.99,42.43c-2.5342,2.0021,9.1379-7.2192-24.67,19.49h49.35C39.8484,35.2108,51.5227,44.4301,48.99,42.43z"></path><path d="M58.35,47.28C80.7013,64.9172,72.9923,58.8341,74.66,60.15V33.63C72.9867,35.0304,80.7108,28.5661,58.35,47.28z"></path><path d="M91.03,1H6.96C3.67,1,1,3.67,1,6.96v64.15c0,3.3,2.67,5.97,5.96,5.97h84.07c3.29,0,5.97-2.67,5.97-5.97V6.96   C97,3.67,94.3199,1,91.03,1z M54.0154,72.1859H43.9764v-2h10.0391V72.1859z M89.12,65.29H8.87V8.87h80.25V65.29z"></path><rect x="19.5745" y="13.2509" width="3.7598" height="2"></rect><polygon points="14.6234,15.2509 16.5989,15.2509 16.5989,13.2509 12.6234,13.2509 12.6234,23.1195 14.6234,23.1195  "></polygon><rect x="78.3651" y="80.6967" width="9.4624" height="2"></rect><rect x="70.2943" y="80.6967" width="4.6382" height="2"></rect><rect x="16.117" y="80.6967" width="10.7612" height="2"></rect><rect x="9.345" y="80.6967" width="4.1743" height="2"></rect><path d="M48.99,39.88l7.76,6.13l7.69-6.44V20.15H33.55v19.42l7.69,6.44L48.99,39.88z M59.4466,38.2865H45.9412v-2h13.5054V38.2865z    M59.4466,32.351h-6.7529v-2h6.7529V32.351z M44.765,24.4154h14.6816v2H44.765V24.4154z M38.5462,24.4154h3.7656v2h-3.7656V24.4154   z M38.5462,30.351h11.6963v2H38.5462V30.351z M38.5462,36.2865h5.043v2h-5.043V36.2865z"></path></g></svg>