<svg height='100px' width='100px'  fill="#ffffff" xmlns="http://www.w3.org/2000/svg" xmlns:xlink="http://www.w3.org/1999/xlink" version="1.1" x="0px" y="0px" viewBox="0 0 98 98" enable-background="new 0 0 98 98" xml:space="preserve"><g><path d="M5.6065,13.8584H1.5335v2h4.0729v11.6548H1.5335v2h4.0729v11.6553H1.5335v2h4.0729v11.6548H1.5335v2h4.0729v11.6553H1.5335   v2h4.0729v11.6548H1.5335v2h4.0729V97h75.16V1h-75.16V13.8584z M16.9165,88.13c-2.4164,0-4.4338-1.717-4.8988-3.9967h4.8962v-2   h-4.8966c0.4636-2.2766,2.4815-4.0033,4.8992-4.0033c2.75,0,5,2.25,5,5C21.9165,85.89,19.6665,88.13,16.9165,88.13z    M12.0173,54.8233c0.4636-2.2767,2.4816-4.0032,4.8992-4.0032c2.75,0,5,2.25,5,5c0,2.76-2.25,5-5,5   c-2.4164,0-4.4338-1.7171-4.8988-3.9968h4.8962v-2H12.0173z M12.0173,27.5132c0.4636-2.2766,2.4816-4.0032,4.8992-4.0032   c2.75,0,5,2.25,5,5c0,2.76-2.25,5-5,5c-2.4164,0-4.4338-1.7171-4.8988-3.9968h4.8962v-2H12.0173z M70.1961,86.0684H53.1605v-2   h17.0356V86.0684z M70.1961,75.7617H40.1581v-2h30.0381V75.7617z M70.1961,65.4556H65.14v-2h5.0562V65.4556z M70.1961,55.1489   H41.1805v-2h29.0156V55.1489z M70.1961,44.8428h-20.231v-2h20.231V44.8428z M63.825,11.9234h6.3711v2H63.825V11.9234z    M63.825,22.23h6.3711v2H63.825V22.23z M63.825,32.5361h6.3711v2H63.825V32.5361z M25.7347,11.9234h32.9771v2H25.7347V11.9234z    M25.7347,22.23h32.9771v2H25.7347V22.23z M25.7347,32.5361h32.9771v2H25.7347V32.5361z M25.7347,42.8428h18.9521v2H25.7347   V42.8428z M25.7347,53.1489h9.4761v2h-9.4761V53.1489z M25.7347,63.4556h32.9771v2H25.7347V63.4556z M25.7347,73.7617h8.7256v2   h-8.7256V73.7617z M25.7347,84.0684H47.326v2H25.7347V84.0684z M12.0175,13.8584c0.4644-2.2804,2.482-3.9983,4.8989-3.9983   c2.75,0,5,2.24,5,5c0,2.7599-2.25,5-5,5c-2.4181,0-4.4362-1.7197-4.8993-4.0017h4.8967v-2H12.0175z M16.9139,43.1685v-2h-4.8964   c0.4644-2.2805,2.482-3.9984,4.8989-3.9984c2.75,0,5,2.24,5,5c0,2.7599-2.25,5-5,5c-2.418,0-4.4361-1.7197-4.8993-4.0016H16.9139z    M16.9139,70.4785v-2h-4.8964c0.4643-2.2805,2.4819-3.9985,4.8989-3.9985c2.75,0,5,2.24,5,5c0,2.7599-2.25,5-5,5   c-2.418,0-4.4361-1.7195-4.8993-4.0015H16.9139z"></path><polygon points="89.3465,95.84 96.0764,82.64 82.6164,82.64  "></polygon><path d="M89.3465,10.12c-3.93,0-7.12,3.2001-7.12,7.12v6.27h14.24v-6.27C96.4665,13.3201,93.2765,10.12,89.3465,10.12z"></path><rect x="82.2265" y="25.51" width="14.24" height="55.13"></rect></g></svg>